<svg width="256" height="256" viewBox="0 0 256 256" fill="none" xmlns="http://www.w3.org/2000/svg">
<g filter="url(#filter0_d)">
<path d="M125 21.7321C126.856 20.6603 129.144 20.6603 131 21.7321L218.531 72.2679C220.387 73.3397 221.531 75.3205 221.531 77.4641V178.536C221.531 180.679 220.387 182.66 218.531 183.732L131 234.268C129.144 235.34 126.856 235.34 125 234.268L37.4693 183.732C35.6129 182.66 34.4693 180.679 34.4693 178.536V77.4641C34.4693 75.3205 35.6128 73.3397 37.4693 72.2679L125 21.7321Z" fill="#E6E8EB"/>
<path d="M129.25 24.7631L216.781 75.299C217.554 75.7456 218.031 76.5709 218.031 77.4641V178.536C218.031 179.429 217.554 180.254 216.781 180.701L129.25 231.237C128.477 231.683 127.523 231.683 126.75 231.237L39.2193 180.701C38.4458 180.254 37.9693 179.429 37.9693 178.536V77.4641C37.9693 76.5709 38.4458 75.7456 39.2193 75.299L126.75 24.7631C127.523 24.3166 128.477 24.3166 129.25 24.7631Z" stroke="#313233" stroke-width="7"/>
</g>
<g filter="url(#filter1_d)">
<path d="M206.179 82.8693V173.138L128 128.004L206.179 82.8693Z" fill="#D54242"/>
<path d="M49.8209 82.8693V173.138L128 128.004L49.8209 82.8693Z" fill="#CA3636"/>
<path d="M49.823 82.8656L127.998 37.7313L128 128.004L49.823 82.8656Z" fill="#D54242"/>
<path d="M128.002 218.276L206.177 173.141L128 128.004L128.002 218.276Z" fill="#CA3636"/>
<path d="M49.823 173.141L127.998 218.276L128 128.004L49.823 173.141Z" fill="#C02D2D"/>
<path d="M128.002 37.7314L206.177 82.8657L128 128.004L128.002 37.7314Z" fill="#EA5E5E"/>
</g>
<g style="mix-blend-mode:overlay" clip-path="url(#clip0)">
<path d="M127.895 140.769C134.868 140.769 140.52 135.117 140.52 128.145C140.52 121.172 134.868 115.52 127.895 115.52C120.923 115.52 115.271 121.172 115.271 128.145C115.271 135.117 120.923 140.769 127.895 140.769Z" fill="white"/>
<path fill-rule="evenodd" clip-rule="evenodd" d="M67.5405 120.363C64.4933 123.113 63.2329 125.748 63.2329 128.145C63.2329 130.541 64.4933 133.176 67.5405 135.927C70.5874 138.677 75.1693 141.296 81.0932 143.557C92.9197 148.073 109.466 150.93 127.895 150.93C146.325 150.93 162.871 148.073 174.698 143.557C180.621 141.296 185.203 138.677 188.25 135.927C191.297 133.176 192.558 130.541 192.558 128.145C192.558 125.748 191.297 123.113 188.25 120.363C185.203 117.612 180.621 114.994 174.698 112.732C162.871 108.216 146.325 105.359 127.895 105.359C109.466 105.359 92.9197 108.216 81.0932 112.732C75.1693 114.994 70.5874 117.612 67.5405 120.363ZM78.8965 106.979C91.5876 102.133 108.912 99.2006 127.895 99.2006C146.879 99.2006 164.203 102.133 176.894 106.979C183.229 109.398 188.568 112.353 192.377 115.791C196.185 119.229 198.716 123.399 198.716 128.145C198.716 132.891 196.185 137.06 192.377 140.498C188.568 143.936 183.229 146.892 176.894 149.311C164.203 154.156 146.879 157.089 127.895 157.089C108.912 157.089 91.5876 154.156 78.8965 149.311C72.5615 146.892 67.2229 143.936 63.414 140.498C59.6054 137.06 57.0746 132.891 57.0746 128.145C57.0746 123.399 59.6054 119.229 63.414 115.791C67.2229 112.353 72.5615 109.398 78.8965 106.979Z" fill="white"/>
<path fill-rule="evenodd" clip-rule="evenodd" d="M104.458 71.9848C100.552 70.7212 97.6395 70.9472 95.5641 72.1454C93.4888 73.3436 91.837 75.7526 90.9784 79.767C90.1198 83.781 90.1434 89.058 91.1465 95.3192C93.1491 107.819 98.9476 123.577 108.162 139.538C117.377 155.498 128.125 168.399 137.949 176.383C142.869 180.382 147.428 183.041 151.333 184.305C155.239 185.568 158.151 185.342 160.227 184.144C162.302 182.946 163.954 180.537 164.812 176.522C165.671 172.508 165.647 167.231 164.644 160.97C162.642 148.47 156.843 132.712 147.628 116.752C138.414 100.791 127.666 87.8908 117.842 79.9065C112.921 75.9072 108.363 73.2483 104.458 71.9848ZM121.726 75.1275C132.268 83.6954 143.47 97.2327 152.962 113.673C162.453 130.113 168.576 146.582 170.725 159.996C171.798 166.692 171.908 172.793 170.834 177.811C169.761 182.828 167.416 187.104 163.306 189.477C159.196 191.85 154.319 191.743 149.438 190.164C144.555 188.585 139.327 185.439 134.065 181.162C123.523 172.594 112.321 159.057 102.829 142.617C93.3374 126.177 87.2148 109.707 85.0657 96.2934C83.993 89.5978 83.883 83.4967 84.9563 78.4789C86.0294 73.4616 88.3748 69.1852 92.485 66.8122C96.5952 64.4391 101.471 64.5462 106.353 66.1255C111.235 67.7049 116.464 70.8507 121.726 75.1275Z" fill="white"/>
<path fill-rule="evenodd" clip-rule="evenodd" d="M164.812 79.767C163.954 75.7526 162.302 73.3436 160.226 72.1454C158.151 70.9473 155.239 70.7212 151.333 71.9848C147.428 73.2483 142.869 75.9072 137.949 79.9065C128.125 87.8908 117.377 100.791 108.162 116.752C98.9475 132.712 93.1491 148.47 91.1464 160.97C90.1433 167.231 90.1198 172.508 90.9783 176.522C91.837 180.537 93.4887 182.946 95.5641 184.144C97.6394 185.342 100.552 185.568 104.457 184.305C108.363 183.041 112.921 180.382 117.842 176.383C127.666 168.399 138.414 155.498 147.628 139.538C156.843 123.577 162.641 107.819 164.644 95.3192C165.647 89.0581 165.671 83.781 164.812 79.767ZM170.725 96.2934C168.576 109.707 162.453 126.177 152.962 142.617C143.47 159.057 132.268 172.594 121.726 181.162C116.464 185.439 111.235 188.585 106.353 190.164C101.471 191.743 96.5951 191.85 92.4849 189.477C88.3747 187.104 86.0294 182.828 84.9562 177.811C83.8829 172.793 83.9929 166.692 85.0656 159.996C87.2147 146.582 93.3373 130.113 102.829 113.673C112.321 97.2327 123.522 83.6955 134.065 75.1275C139.327 70.8507 144.555 67.7049 149.438 66.1255C154.319 64.5462 159.195 64.4392 163.306 66.8122C167.416 69.1852 169.761 73.4616 170.834 78.4789C171.908 83.4967 171.798 89.5978 170.725 96.2934Z" fill="white"/>
</g>
<defs>
<filter id="filter0_d" x="31.4692" y="19.9282" width="191.062" height="218.144" filterUnits="userSpaceOnUse" color-interpolation-filters="sRGB">
<feFlood flood-opacity="0" result="BackgroundImageFix"/>
<feColorMatrix in="SourceAlpha" type="matrix" values="0 0 0 0 0 0 0 0 0 0 0 0 0 0 0 0 0 0 127 0" result="hardAlpha"/>
<feOffset dx="-1" dy="1"/>
<feGaussianBlur stdDeviation="1"/>
<feComposite in2="hardAlpha" operator="out"/>
<feColorMatrix type="matrix" values="0 0 0 0 0 0 0 0 0 0 0 0 0 0 0 0 0 0 0.25 0"/>
<feBlend mode="normal" in2="BackgroundImageFix" result="effect1_dropShadow"/>
<feBlend mode="normal" in="SourceGraphic" in2="effect1_dropShadow" result="shape"/>
</filter>
<filter id="filter1_d" x="46.8209" y="36.7313" width="160.358" height="184.545" filterUnits="userSpaceOnUse" color-interpolation-filters="sRGB">
<feFlood flood-opacity="0" result="BackgroundImageFix"/>
<feColorMatrix in="SourceAlpha" type="matrix" values="0 0 0 0 0 0 0 0 0 0 0 0 0 0 0 0 0 0 127 0" result="hardAlpha"/>
<feOffset dx="-1" dy="1"/>
<feGaussianBlur stdDeviation="1"/>
<feComposite in2="hardAlpha" operator="out"/>
<feColorMatrix type="matrix" values="0 0 0 0 0 0 0 0 0 0 0 0 0 0 0 0 0 0 0.25 0"/>
<feBlend mode="normal" in2="BackgroundImageFix" result="effect1_dropShadow"/>
<feBlend mode="normal" in="SourceGraphic" in2="effect1_dropShadow" result="shape"/>
</filter>
<clipPath id="clip0">
<rect width="141.641" height="126.021" fill="white" transform="translate(57.0746 65.1343)"/>
</clipPath>
</defs>
</svg>
