<svg width="256" height="256" viewBox="0 0 256 256" fill="none" xmlns="http://www.w3.org/2000/svg">
<path fill-rule="evenodd" clip-rule="evenodd" d="M0 0V256H256V0H0ZM67.5495 22.8805L135.099 39.4812L139.631 47.3447L52.6962 97.4744L48.1638 89.6109L67.5495 22.8805ZM50.4573 139.358L30.471 133.679L23.0444 131.549L25.1741 124.123L30.8532 104.137L38.2799 106.266L34.0751 121.065L145.802 56.5188C157.324 49.8567 172.123 53.843 178.73 65.3652C185.392 76.8874 180.969 92.1775 169.447 98.785L165.57 92.1229C173.379 87.5904 176.546 77.0512 172.068 69.2423C167.536 61.4335 157.488 58.7031 149.679 63.2355L37.8976 127.727L52.587 131.877L50.4573 139.358ZM154.539 73.1741L188.669 132.314L101.734 182.498L67.6041 123.358L154.539 73.1741ZM188.942 233.119L121.392 216.519L116.696 208.328L203.631 158.143L208.328 166.334L188.942 233.119ZM230.826 131.659L225.147 151.645L217.72 149.515L221.925 134.717L110.198 199.263C98.6758 205.925 83.8771 201.939 77.2696 190.416C70.6621 178.894 75.3584 163.495 86.8806 156.833L90.7031 163.44C82.8942 167.973 79.3993 178.676 83.9317 186.539C88.4642 194.348 98.5119 197.079 106.321 192.546L218.102 128L203.413 123.85L205.543 116.423L225.529 122.102L232.956 124.232L230.826 131.659Z" fill="#E60F58"/>
</svg>
