<svg width="1330" height="485" viewBox="0 0 1330 485" fill="none" xmlns="http://www.w3.org/2000/svg">
<path fill-rule="evenodd" clip-rule="evenodd" d="M937.383 62.5557V151.375H924.699V62.5557H894.566V51.7984H967.516V62.5557H937.383ZM858.229 142.059C867.726 142.059 874.918 138.266 881.306 131.211L888.255 138.797C880.213 148.037 870.518 153.165 857.697 153.165C832.891 153.165 814.304 133.987 814.304 101.579C814.304 69.1709 833.224 49.8867 858.502 49.8867C863.66 49.9011 868.758 51.0015 873.464 53.1163C878.169 55.2311 882.376 58.3129 885.812 62.1612L878.863 70.0812C876.337 67.2079 873.225 64.9089 869.737 63.3386C866.248 61.7684 862.464 60.9634 858.638 60.9778C839.824 60.9778 827.307 76.3929 827.307 101.2C827.307 126.007 839.339 142.059 858.229 142.059V142.059ZM784.642 121.045H748.335L738.746 151.39H725.849L759.547 51.8136H773.794L807.477 151.39H794.064L784.642 121.045ZM776.737 95.7681C773.157 84.6316 769.97 73.6923 766.769 62.2067H766.208C763.173 73.753 759.926 84.6316 756.361 95.7681L751.566 110.941H781.517L776.737 95.7681ZM659.106 51.7681H716.503V62.495H671.775V93.7199H709.508V104.447H671.775V140.663H718.02V151.375H659.106V51.7681ZM627.425 151.375L603.453 109.241H585.459V151.375H572.774V51.7984H603.969C624.254 51.7984 638.866 59.0812 638.866 79.8219C638.866 95.3433 630.005 104.583 616.471 107.891L641.794 151.375H627.425ZM626.181 79.8219C626.181 66.7281 617.639 62.0702 602.148 62.0702H585.459V99.015H602.148C617.639 99.015 626.181 92.7337 626.181 79.8219Z" fill="#E60F58"/>
<path fill-rule="evenodd" clip-rule="evenodd" d="M1323.19 226.57H1271.16L1238.87 389.294H1197.27L1229.56 226.57H1177.52L1184.34 191.521H1330L1323.19 226.57ZM1078.38 226.418L1069.99 269.341H1134.59L1127.78 304.237H1063.27L1052.86 354.412H1131.56L1124.75 389.309H1004.54L1044.09 191.536H1161.37L1154.55 226.433L1078.38 226.418ZM942.587 223.763C910.315 223.763 883.551 263.348 883.551 307.317C883.551 337.981 895.689 357.037 922.817 357.037C936.73 357.037 948.398 350.756 958.472 342.123L975.83 368.584C962.038 381.541 943.497 392.935 915.14 392.935C870.23 392.935 840.886 361.953 840.886 310.139C840.886 241.863 886.904 187.88 945.121 187.88C967.97 187.88 986.466 198.121 997.253 216.404L974.07 241.044C965.846 228.982 955.392 223.763 942.587 223.763V223.763ZM772.276 339.574H713.331L689.875 389.294H644.267L748.623 191.521H798.221L818.218 389.294H774.613L772.276 339.574ZM769.545 282.207C768.62 262.756 767.588 244.185 767.148 223.414H765.934C757.301 243.714 749.669 262.483 740.414 282.207L728.14 308.258H770.759L769.545 282.207ZM605.911 226.418L596.413 274.97H661.017L654.204 309.866H589.707L573.669 389.294H532.066L571.621 191.521H688.904L682.076 226.418H605.911Z" fill="white"/>
<path d="M337.754 175.135L328.863 159.735C346.903 149.266 354.231 124.975 343.777 106.935C338.74 98.2558 330.469 91.9263 320.774 89.3328C311.08 86.7393 300.753 88.0931 292.055 93.0978L283.148 77.6978C295.932 70.346 311.107 68.3577 325.353 72.168C339.599 75.9783 351.756 85.2769 359.162 98.0289C374.562 124.611 364.336 159.857 337.754 175.135Z" fill="white"/>
<path d="M283.154 77.6638L5.02539 238.241L13.924 253.654L292.052 93.0767L283.154 77.6638Z" fill="white"/>
<path d="M68.2001 251.513L22.1366 238.404L35.2456 192.34L18.04 187.409L4.93104 233.473L0 250.678L17.2055 255.609L63.269 268.718L68.2001 251.513Z" fill="white"/>
<path d="M147.172 309.001L155.942 324.28C137.902 334.749 129.845 359.404 140.314 377.565C145.344 386.269 153.623 392.62 163.333 395.223C173.042 397.826 183.388 396.468 192.097 391.448L200.989 406.848C188.205 414.2 173.03 416.188 158.784 412.378C144.538 408.568 132.381 399.269 124.975 386.517C109.696 359.889 120.651 324.401 147.172 309.001Z" fill="white"/>
<path d="M470.339 230.844L192.211 391.421L201.11 406.834L479.238 246.256L470.339 230.844Z" fill="white"/>
<path d="M416.18 232.988L462.258 246.097L449.134 292.175L466.218 297.106L479.449 250.906L484.258 233.837L467.068 228.906L420.989 215.782L416.18 232.988Z" fill="white"/>
<path d="M303.322 116.061L102.902 231.773L181.625 368.124L382.044 252.412L303.322 116.061Z" fill="#E61259"/>
<path d="M416.544 312.021L216.146 427.847L226.98 446.615L382.74 484.986L427.483 330.895L416.544 312.021Z" fill="#E61259"/>
<path d="M268.946 56.4111L258.492 38.3711L102.717 0L58.0947 154.091L68.4423 172.131L268.946 56.4111Z" fill="#E61259"/>
</svg>
