<svg xmlns="http://www.w3.org/2000/svg" viewBox="0 0 468.77 468.77"><defs><style>.cls-1{fill:#E60F58;fill-rule:evenodd;}</style></defs><g id="Layer_2" data-name="Layer 2"><g id="Layer_1-2" data-name="Layer 1"><path class="cls-1" d="M0,0V468.77H468.77V0ZM123.71,41.87,247.39,72.3l8.28,14.35L96.52,178.54l-8.29-14.35ZM92.37,255.21,55.78,244.8l-13.64-3.89L46,227.27l10.42-36.59,13.64,3.88-7.72,27.12L267,103.53a44.22,44.22,0,0,1,60.34,16.16c12.17,21.1,4.06,49.06-17,61.24l-7.06-12.23c14.35-8.28,20.14-27.6,11.86-41.95a30.09,30.09,0,0,0-41.05-11L69.4,233.92l26.86,7.65ZM283,134l62.5,108.26L186.36,334.15,123.86,225.9Zm63,292.88L222.34,396.47l-8.63-15,159.15-91.89,8.63,14.95Zm76.73-185.78L412.33,277.7l-13.65-3.88,7.72-27.12L201.76,364.85a44.22,44.22,0,0,1-60.34-16.16c-12.18-21.1-3.46-49.29,17.63-61.46l7,12.13c-14.35,8.28-20.7,27.92-12.41,42.27a30.09,30.09,0,0,0,41,11L399.37,234.46l-26.86-7.65,3.88-13.64L413,223.58l13.65,3.89Z"/></g></g></svg>