<svg width="256" height="256" viewBox="0 0 256 256" fill="none" xmlns="http://www.w3.org/2000/svg">
<path d="M169.259 98.8483L165.409 92.176C173.222 87.6602 176.394 77.1232 171.878 69.2946C169.7 65.5332 166.119 62.7895 161.92 61.6656C157.721 60.5417 153.248 61.1293 149.481 63.2995L145.632 56.6273C151.167 53.4411 157.74 52.5801 163.909 54.2332C170.078 55.8863 175.34 59.9185 178.54 65.4455C185.186 76.9513 180.764 92.2021 169.259 98.8483Z" fill="white"/>
<path d="M145.64 56.6282L25.1885 126.171L29.0376 132.838L149.489 63.2952L145.64 56.6282Z" fill="white"/>
<path d="M52.5025 131.918L32.5483 126.24L38.2257 106.281L30.7826 104.161L25.1053 124.12L22.9854 131.564L30.4284 133.683L50.3826 139.361L52.5025 131.918Z" fill="white"/>
<path d="M86.7547 156.823L90.5727 163.438C82.7597 167.959 79.2856 178.668 83.8015 186.491C85.977 190.256 89.5582 193.002 93.7579 194.128C97.9577 195.253 102.432 194.664 106.198 192.492L110.053 199.164C104.519 202.347 97.9483 203.206 91.7818 201.553C85.6153 199.9 80.3555 195.87 77.1553 190.346C70.4935 178.84 75.2489 163.464 86.7547 156.823Z" fill="white"/>
<path d="M226.647 122.954L106.195 192.497L110.044 199.164L230.496 129.621L226.647 122.954Z" fill="white"/>
<path d="M203.177 123.87L223.136 129.552L217.454 149.511L224.897 151.631L230.579 131.672L232.699 124.229L225.256 122.109L205.297 116.432L203.177 123.87Z" fill="white"/>
<path d="M154.367 73.2552L67.5566 123.375L101.647 182.421L188.457 132.301L154.367 73.2552Z" fill="white"/>
<path d="M203.37 158.132L116.563 208.254L121.272 216.406L188.723 233L208.079 166.289L203.37 158.132Z" fill="white"/>
<path d="M139.449 47.4231L134.934 39.5946L67.4769 23L48.127 89.717L52.6428 97.5403L139.449 47.4231Z" fill="white"/>
</svg>
